<svg xmlns="http://www.w3.org/2000/svg" width="33" height="24" viewBox="0 0 33 24" fill="none">
<mask id="mask0_1_252" style="mask-type:luminance" maskUnits="userSpaceOnUse" x="0" y="0" width="33" height="24">
<path d="M32.671 0.515137H0V23.4861H32.671V0.515137Z" fill="white"/>
</mask>
<g mask="url(#mask0_1_252)">
<path d="M32.671 2.87613V21.1901C32.629 21.2421 32.564 21.2901 32.548 21.3481C32.3893 21.9637 32.0244 22.5062 31.514 22.8851C31.0837 23.2456 30.5476 23.4562 29.987 23.4851C20.9203 23.4918 11.8563 23.4918 2.795 23.4851C2.34148 23.4882 1.89458 23.3762 1.49617 23.1595C1.09775 22.9428 0.760848 22.6285 0.517 22.2461C0.315932 21.9089 0.143013 21.5557 0 21.1901L0 2.81413C0.022 2.78413 0.055 2.75713 0.063 2.72413C0.154243 2.33904 0.324577 1.97714 0.563181 1.66141C0.801786 1.34568 1.10345 1.08302 1.449 0.890126C1.91168 0.633477 2.43401 0.503758 2.963 0.514126C10.9983 0.514126 19.0337 0.514126 27.069 0.514126C28.063 0.514126 29.057 0.536126 30.051 0.580126C30.4981 0.592909 30.9339 0.723205 31.3147 0.957908C31.6955 1.19261 32.0077 1.52344 32.22 1.91713C32.399 2.21713 32.52 2.55313 32.671 2.87213M29.356 2.44813H3.227C3.607 2.80013 3.957 3.10513 4.285 3.43313C6.845 5.98579 9.40333 8.54013 11.96 11.0961C12.808 11.9411 13.66 12.7801 14.535 13.6021C14.924 13.9629 15.4232 14.182 15.952 14.2241C16.4312 14.2703 16.9145 14.2033 17.363 14.0283C17.8115 13.8534 18.2126 13.5755 18.534 13.2171C19.448 12.2811 20.378 11.3621 21.307 10.4411C22.763 8.99813 24.227 7.56413 25.681 6.12013C26.9 4.91413 28.115 3.69313 29.355 2.45213M3.227 21.5521H29.4C29.265 21.4331 29.174 21.3611 29.092 21.2801C27.272 19.4801 25.4527 17.6801 23.634 15.8801C22.864 15.1171 22.095 14.3521 21.334 13.5801C21.156 13.3981 21.044 13.3621 20.854 13.5701C20.503 13.9541 20.115 14.3041 19.754 14.6801C19.3241 15.1339 18.8089 15.4983 18.2379 15.7526C17.6669 16.0068 17.0513 16.1459 16.4265 16.1618C15.8016 16.1776 15.1798 16.07 14.5966 15.8451C14.0134 15.6202 13.4804 15.2824 13.028 14.8511C12.597 14.4411 12.173 14.0221 11.767 13.5871C11.576 13.3871 11.467 13.3871 11.267 13.5871C8.87567 15.9905 6.478 18.3881 4.074 20.7801C3.815 21.0381 3.536 21.2741 3.228 21.5551M22.482 12.0141L30.731 20.2291V3.76113L22.482 12.0141ZM10.175 12.0141L1.936 3.84213V20.1601L10.174 12.0141" fill="#036E8A"/>
</g>
</svg>