<svg xmlns="http://www.w3.org/2000/svg" width="28" height="33" viewBox="0 0 28 33" fill="none">
  <mask id="mask0_1_108" style="mask-type:luminance" maskUnits="userSpaceOnUse" x="0" y="0" width="28" height="33">
    <path d="M27.741 0.092041H0.258972V32.908H27.741V0.092041Z" fill="white"/>
  </mask>
  <g mask="url(#mask0_1_108)">
    <path d="M14 32.908L13.047 32.092C11.733 30.992 0.258972 21.081 0.258972 13.833C0.258972 10.1887 1.70668 6.69362 4.28362 4.11669C6.86056 1.53975 10.3556 0.092041 14 0.092041C17.6443 0.092041 21.1394 1.53975 23.7163 4.11669C26.2933 6.69362 27.741 10.1887 27.741 13.833C27.741 21.081 16.267 30.992 14.959 32.092L14 32.908ZM14 3.06304C11.1446 3.06622 8.40702 4.20193 6.38794 6.22101C4.36886 8.24009 3.23315 10.9776 3.22997 13.833C3.22997 18.387 10.289 25.661 14 28.99C17.711 25.659 24.77 18.381 24.77 13.833C24.7668 10.9776 23.6311 8.24009 21.612 6.22101C19.5929 4.20193 16.8554 3.06622 14 3.06304Z" fill="white"/>
    <path d="M14 19.28C12.9227 19.28 11.8695 18.9605 10.9738 18.362C10.078 17.7635 9.37987 16.9128 8.9676 15.9175C8.55533 14.9222 8.44746 13.8269 8.65764 12.7703C8.86781 11.7137 9.38658 10.7432 10.1484 9.98137C10.9101 9.2196 11.8807 8.70082 12.9373 8.49065C13.9939 8.28048 15.0891 8.38835 16.0845 8.80062C17.0798 9.21289 17.9305 9.91104 18.529 10.8068C19.1275 11.7026 19.447 12.7557 19.447 13.833C19.447 15.2776 18.8731 16.6631 17.8516 17.6846C16.8301 18.7061 15.4446 19.28 14 19.28ZM14 11.11C13.4614 11.11 12.935 11.2697 12.4872 11.5689C12.0394 11.8681 11.6903 12.2934 11.4842 12.7909C11.2782 13.2885 11.2242 13.836 11.3293 14.3642C11.4344 14.8924 11.6937 15.3776 12.0745 15.7584C12.4553 16.1393 12.9405 16.3986 13.4687 16.5037C13.997 16.6087 14.5445 16.5548 15.042 16.3487C15.5396 16.1426 15.9649 15.7936 16.2641 15.3458C16.5633 14.898 16.723 14.3716 16.723 13.833C16.723 13.4754 16.6525 13.1213 16.5157 12.7909C16.3789 12.4606 16.1783 12.1604 15.9254 11.9075C15.6726 11.6547 15.3724 11.4541 15.042 11.3173C14.7117 11.1804 14.3576 11.11 14 11.11Z" fill="white"/>
  </g>
</svg>