<svg xmlns="http://www.w3.org/2000/svg" width="19" height="19" viewBox="0 0 19 19" fill="none">
<path d="M16.844 6.81092C16.7436 6.74233 16.6653 6.64588 16.6189 6.53342C16.5726 6.42095 16.5601 6.29739 16.583 6.17792C16.6351 5.63139 16.5641 5.08014 16.3753 4.56462C16.1865 4.0491 15.8847 3.58241 15.4919 3.19879C15.0992 2.81516 14.6256 2.52435 14.1058 2.3477C13.5859 2.17105 13.0332 2.11303 12.488 2.17792C12.3969 2.2015 12.3007 2.19573 12.2131 2.16143C12.1255 2.12714 12.0509 2.06607 12 1.98692C11.6538 1.54097 11.2099 1.18038 10.7025 0.932886C10.1951 0.685397 9.63766 0.557605 9.0731 0.559344C8.50854 0.561082 7.9519 0.692305 7.44602 0.942915C6.94013 1.19353 6.49847 1.55684 6.15502 2.00492C6.04242 2.11012 5.89412 2.16873 5.74002 2.16892C5.41102 2.19192 5.07702 2.14392 4.75102 2.17992C3.82337 2.32008 2.98304 2.80585 2.39861 3.53976C1.81419 4.27367 1.52892 5.20144 1.60002 6.13692C1.62684 6.27344 1.61266 6.41484 1.55928 6.54332C1.50589 6.67179 1.41569 6.78161 1.30002 6.85892C0.910392 7.18517 0.593373 7.58937 0.36936 8.04552C0.145348 8.50166 0.019302 8.99965 -0.000666792 9.50744C-0.0206356 10.0152 0.0659147 10.5216 0.253416 10.9939C0.440917 11.4662 0.725215 11.8941 1.08802 12.2499C1.44702 12.5979 1.78802 12.8869 1.53702 13.4299C1.59302 13.7609 1.63102 14.0789 1.70202 14.3889C1.92547 15.2516 2.45365 16.0042 3.18894 16.5077C3.92422 17.0112 4.81691 17.2315 5.70202 17.1279C5.7982 17.1072 5.89845 17.1168 5.98891 17.1555C6.07937 17.1942 6.15558 17.26 6.20702 17.3439C6.56019 17.8025 7.01998 18.1679 7.54646 18.4084C8.07294 18.6489 8.65017 18.7572 9.22802 18.7239C9.77707 18.7142 10.3166 18.5791 10.8054 18.3288C11.2942 18.0785 11.7192 17.7197 12.048 17.2799C12.1438 17.186 12.271 17.1311 12.405 17.1259C12.8629 17.1197 13.3202 17.09 13.775 17.0369C14.6315 16.8388 15.3879 16.3388 15.9058 15.6284C16.4237 14.9181 16.6684 14.0449 16.595 13.1689C16.5648 13.0395 16.5734 12.904 16.6199 12.7795C16.6663 12.655 16.7484 12.5469 16.856 12.4689C17.275 12.1256 17.6122 11.6934 17.8433 11.2035C18.0744 10.7136 18.1936 10.1785 18.1921 9.63686C18.1907 9.09523 18.0687 8.56071 17.835 8.07209C17.6013 7.58347 17.2618 7.153 16.841 6.81192M11.391 9.94292C10.653 10.6763 9.90935 11.4066 9.16002 12.1339C9.01581 12.3135 8.83312 12.4584 8.62543 12.558C8.41774 12.6576 8.19035 12.7093 7.96002 12.7093C7.72969 12.7093 7.5023 12.6576 7.29461 12.558C7.08692 12.4584 6.90424 12.3135 6.76002 12.1339C6.17102 11.5719 5.60002 10.9899 5.00002 10.4339C4.78002 10.2329 4.80002 10.0989 5.00002 9.91992C5.21188 9.72966 5.41223 9.52697 5.60002 9.31292C5.76502 9.12292 5.89402 9.13692 6.06602 9.30792C6.60302 9.84392 7.16002 10.3589 7.69002 10.8999C7.89002 11.0999 8.00702 11.0939 8.20402 10.8999C9.49202 9.62092 10.8 8.35892 12.08 7.08292C12.299 6.86592 12.428 6.84492 12.647 7.08292C12.9115 7.34389 13.1906 7.58962 13.483 7.81892C12.719 8.59792 12.061 9.27692 11.391 9.94492" fill="#036E8A"/>
</svg>